# xmcd
# 
# Track frame offsets:
#     150
#     23420
#     46173
#     65233
#     87570
#     105768
#     129108
#     154613
#     181393
# 
# Disc length: 2679
# 
# Revision: 3
# Processed by: cddbd v1.5.2PL0 Copyright (c) Steve Scherf et al.
# Submitted via: BonkEnc v1.0.8
# 
DISCID=630a7509
DTITLE=Poncho Sanchez - iFuerte!
DYEAR=1987
DGENRE=Latin Jazz
TTITLE0=Fuerte
TTITLE1=Baila Mi Gente
TTITLE2=It Could Happen To You
TTITLE3=No Llores, Mi Corazon
TTITLE4=Ixtapa
TTITLE5=Co Co My My
TTITLE6=Siempre Te Amare
TTITLE7=Alafia
TTITLE8=Daahoud
EXTD=YEAR: 2002
EXTT0=
EXTT1=
EXTT2=
EXTT3=
EXTT4=
EXTT5=
EXTT6=
EXTT7=
EXTT8=
PLAYORDER=
